# xmcd
#
# Track frame offsets:
#	150
#	12613
#	25941
#	39959
#	51641
#	65019
#	78221
#	95219
#	109420
#	122032
#	135521
#	148098
#	158832
#	169060
#	184038
#	198325
#	210279
#	223447
#	237498
#	248774
#	261421
#	274566
#	289722
#	303489
#	317789
#
# Disc length: 4426 seconds
#
# Revision: 2
# Processed by: cddbd v1.5.2PL0 Copyright (c) Steve Scherf et al.
# Submitted via: EasyCDDAExtractor 8.0.1.1
#
DISCID=80114819
DTITLE=Various Artist - Criollos de siempre 1
DYEAR=1999
DGENRE=Criollo
TTITLE0=Los Morochucos - Cuando Llora Mi Guitarra
TTITLE1=Fiesta Criolla - Mechita
TTITLE2=Los Romanceros Criollos - China Hereje
TTITLE3=Carmencita Lara - Lora, Llora Corazón
TTITLE4=Los Kipus - Nada Soy
TTITLE5=Carmencita Lara - Mala Sombra
TTITLE6=Hermandos Arriagada - La Casa Nueva
TTITLE7=Los Kipus - Rose Te
TTITLE8=Los Embajadores Criollos - Odiame
TTITLE9=Los Morochucos - Nube Gris
TTITLE10=Los Ases Del Perú - Suspiro
TTITLE11=Eva Ayllón - Engañada - Noche Tras Noche
TTITLE12=Hermanos Zañartu - Mi Perú
TTITLE13=Los Morochucos - El Huerto De Mi Amada
TTITLE14=Fiesta Criollos - Juanita
TTITLE15=Los Embajadores Criollos - Alma Corazón y Vida
TTITLE16=Cecilia Barraza - Cada Domingo A Las 12 Después De La Misa
TTITLE17=Arturo Zambo Cavero and Oscar Aviles - Y Se Llama Perú
TTITLE18=Los Romanceros Criollos - Engañada
TTITLE19=Los Kipus - Perdiste
TTITLE20=Maritza Rodrigues - Triste Despedida
TTITLE21=Los Chamas - Con Locura
TTITLE22=Maritza Rodrigues - Ilusión Perdida
TTITLE23=Carreta Jorge Pérez - Yo La Quería Patita
TTITLE24=Los Dos Compadres - El Pirata
EXTD=YEAR: 2002
EXTT0=
EXTT1=
EXTT2=
EXTT3=
EXTT4=
EXTT5=
EXTT6=
EXTT7=
EXTT8=
EXTT9=
EXTT10=
EXTT11=
EXTT12=
EXTT13=
EXTT14=
EXTT15=
EXTT16=
EXTT17=
EXTT18=
EXTT19=
EXTT20=
EXTT21=
EXTT22=
EXTT23=
EXTT24=
PLAYORDER=
